<?xml version="1.0" encoding="UTF-8"?>
<svg xmlns="http://www.w3.org/2000/svg" width="1600" height="900" viewBox="0 0 1600 900">
  <defs>
    <linearGradient id="bg" x1="0" y1="0" x2="1" y2="1">
      <stop offset="0" stop-color="#07111F"/>
      <stop offset="0.56" stop-color="#0B1728"/>
      <stop offset="1" stop-color="#101B30"/>
    </linearGradient>
    <radialGradient id="glow" cx="0.82" cy="0.08" r="0.85">
      <stop offset="0" stop-color="#FF4F87" stop-opacity="0.18"/>
      <stop offset="0.52" stop-color="#5DD6FF" stop-opacity="0.05"/>
      <stop offset="1" stop-color="#07111F" stop-opacity="0"/>
    </radialGradient>
    <pattern id="grid" width="48" height="48" patternUnits="userSpaceOnUse">
      <path d="M 48 0 L 0 0 0 48" fill="none" stroke="#2C4059" stroke-width="1" opacity="0.16"/>
    </pattern>
    <filter id="shadow" x="-20%" y="-20%" width="140%" height="160%">
      <feDropShadow dx="0" dy="12" stdDeviation="14" flood-color="#000814" flood-opacity="0.42"/>
    </filter>
    <marker id="arrow" markerWidth="12" markerHeight="12" refX="9" refY="5" orient="auto" markerUnits="strokeWidth">
      <path d="M0,0 L10,5 L0,10 z" fill="#7890AA"/>
    </marker>
  </defs>
  <rect width="1600" height="900" fill="url(#bg)"/>
  <rect width="1600" height="900" fill="url(#glow)"/>
  <rect width="1600" height="900" fill="url(#grid)"/>
  <rect x="68" y="50" width="188" height="34" rx="17" fill="#FF4F87" opacity="0.16"/>
  <text x="162" y="74" text-anchor="middle" font-family="Segoe UI, Arial, sans-serif" font-size="15" font-weight="700" fill="#FF4F87" opacity="1"><tspan x="162" dy="0">GUIA VISUAL</tspan></text>
  <text x="68" y="122" text-anchor="start" font-family="Segoe UI, Arial, sans-serif" font-size="40" font-weight="750" fill="#F7FAFC" opacity="1"><tspan x="68" dy="0">O contrato de reuso</tspan></text>
  <text x="68" y="158" text-anchor="start" font-family="Segoe UI, Arial, sans-serif" font-size="20" font-weight="450" fill="#AFC0D4" opacity="1"><tspan x="68" dy="0">Velocidade só vira ganho quando a interface permanece verificável</tspan></text>
  <line x1="68" y1="186" x2="1532" y2="186" stroke="#2C4059" stroke-width="1"/>
  <path d="M530,420 C567.5,420 567.5,420 605,420" fill="none" stroke="#7890AA" stroke-width="3"  marker-end="url(#arrow)"/>
  <rect x="515.5" y="391" width="104" height="28" rx="14" fill="#07111F" stroke="#2C4059"/><text x="567.5" y="411" text-anchor="middle" font-family="Segoe UI, Arial" font-size="13" font-weight="650" fill="#AFC0D4">habilita</text><path d="M995,420 C1032.5,420 1032.5,420 1070,420" fill="none" stroke="#7890AA" stroke-width="3"  marker-end="url(#arrow)"/>
  <rect x="980.5" y="391" width="104" height="28" rx="14" fill="#07111F" stroke="#2C4059"/><text x="1032.5" y="411" text-anchor="middle" font-family="Segoe UI, Arial" font-size="13" font-weight="650" fill="#AFC0D4">sustenta</text><g opacity="1" filter="url(#shadow)">
    <rect x="140" y="255" width="390" height="330" rx="24" fill="#101D2F" stroke="#2C4059" stroke-width="1.5"/>
    <rect x="140" y="255" width="6" height="330" rx="3" fill="#5DD6FF"/>
    <rect x="164" y="275" width="92" height="28" rx="14" fill="#5DD6FF" opacity="0.14"/>
       <text x="178" y="295" text-anchor="start" font-family="Segoe UI, Arial, sans-serif" font-size="12" font-weight="750" fill="#5DD6FF" opacity="1"><tspan x="178" dy="0">ANTES</tspan></text>
    <text x="168" y="339" text-anchor="start" font-family="Segoe UI, Arial, sans-serif" font-size="24" font-weight="700" fill="#F7FAFC" opacity="1"><tspan x="168" dy="0">Contrato</tspan></text>
    <text x="168" y="381" text-anchor="start" font-family="Segoe UI, Arial, sans-serif" font-size="17" font-weight="450" fill="#AFC0D4" opacity="1"><tspan x="168" dy="0">Entradas nomeadas</tspan><tspan x="168" dy="25">Retorno documentado</tspan><tspan x="168" dy="25">Erros previsíveis</tspan><tspan x="168" dy="25">Sem mutação silenciosa</tspan></text>
  </g><g opacity="1" filter="url(#shadow)">
    <rect x="605" y="255" width="390" height="330" rx="24" fill="#101D2F" stroke="#2C4059" stroke-width="1.5"/>
    <rect x="605" y="255" width="6" height="330" rx="3" fill="#FF4F87"/>
    <rect x="629" y="275" width="92" height="28" rx="14" fill="#FF4F87" opacity="0.14"/>
       <text x="643" y="295" text-anchor="start" font-family="Segoe UI, Arial, sans-serif" font-size="12" font-weight="750" fill="#FF4F87" opacity="1"><tspan x="643" dy="0">DURANTE</tspan></text>
    <text x="633" y="339" text-anchor="start" font-family="Segoe UI, Arial, sans-serif" font-size="24" font-weight="700" fill="#F7FAFC" opacity="1"><tspan x="633" dy="0">Reuso</tspan></text>
    <text x="633" y="381" text-anchor="start" font-family="Segoe UI, Arial, sans-serif" font-size="17" font-weight="450" fill="#AFC0D4" opacity="1"><tspan x="633" dy="0">Import explícito</tspan><tspan x="633" dy="25">Parâmetros do caso</tspan><tspan x="633" dy="25">Compute consciente</tspan><tspan x="633" dy="25">Evidência observável</tspan></text>
  </g><g opacity="1" filter="url(#shadow)">
    <rect x="1070" y="255" width="390" height="330" rx="24" fill="#101D2F" stroke="#2C4059" stroke-width="1.5"/>
    <rect x="1070" y="255" width="6" height="330" rx="3" fill="#66E3C4"/>
    <rect x="1094" y="275" width="92" height="28" rx="14" fill="#66E3C4" opacity="0.14"/>
       <text x="1108" y="295" text-anchor="start" font-family="Segoe UI, Arial, sans-serif" font-size="12" font-weight="750" fill="#66E3C4" opacity="1"><tspan x="1108" dy="0">DEPOIS</tspan></text>
    <text x="1098" y="339" text-anchor="start" font-family="Segoe UI, Arial, sans-serif" font-size="24" font-weight="700" fill="#F7FAFC" opacity="1"><tspan x="1098" dy="0">Confiança</tspan></text>
    <text x="1098" y="381" text-anchor="start" font-family="Segoe UI, Arial, sans-serif" font-size="17" font-weight="450" fill="#AFC0D4" opacity="1"><tspan x="1098" dy="0">Resultado interpretado</tspan><tspan x="1098" dy="25">Limites declarados</tspan><tspan x="1098" dy="25">Teste reproduzível</tspan><tspan x="1098" dy="25">Decisão rastreável</tspan></text>
  </g><g><circle cx="80" cy="785" r="6" fill="#5DD6FF"/><text x="96" y="791" font-family="Segoe UI, Arial" font-size="15" font-weight="600" fill="#AFC0D4">Interface</text></g><g><circle cx="213" cy="785" r="6" fill="#FF4F87"/><text x="229" y="791" font-family="Segoe UI, Arial" font-size="15" font-weight="600" fill="#AFC0D4">Biblioteca do Hub</text></g><g><circle cx="418" cy="785" r="6" fill="#66E3C4"/><text x="434" y="791" font-family="Segoe UI, Arial" font-size="15" font-weight="600" fill="#AFC0D4">Evidência</text></g>
  <line x1="68" y1="838" x2="1532" y2="838" stroke="#2C4059" stroke-width="1"/>
  <circle cx="80" cy="865" r="5" fill="#FF4F87"/>
  <text x="96" y="871" text-anchor="start" font-family="Segoe UI, Arial, sans-serif" font-size="14" font-weight="700" fill="#AFC0D4" opacity="1"><tspan x="96" dy="0">HUB .ASSISTANT</tspan></text>
  <text x="1532" y="871" text-anchor="end" font-family="Segoe UI, Arial, sans-serif" font-size="14" font-weight="500" fill="#AFC0D4" opacity="1"><tspan x="1532" dy="0">Leitura técnica + impacto visual</tspan></text>
</svg>